<?xml version="1.0" encoding="UTF-8" standalone="no"?>
<svg
   xmlns:dc="http://purl.org/dc/elements/1.1/"
   xmlns:cc="http://creativecommons.org/ns#"
   xmlns:rdf="http://www.w3.org/1999/02/22-rdf-syntax-ns#"
   xmlns:svg="http://www.w3.org/2000/svg"
   xmlns="http://www.w3.org/2000/svg"
   xmlns:sodipodi="http://sodipodi.sourceforge.net/DTD/sodipodi-0.dtd"
   xmlns:inkscape="http://www.inkscape.org/namespaces/inkscape"
   viewBox="0 0 24 24"
   version="1.1"
   id="svg4"
   sodipodi:docname="calculator.svg"
   inkscape:version="0.92.3 (2405546, 2018-03-11)"
   width="24"
   height="24">
  <metadata
     id="metadata10">
    <rdf:RDF>
      <cc:Work
         rdf:about="">
        <dc:format>image/svg+xml</dc:format>
        <dc:type
           rdf:resource="http://purl.org/dc/dcmitype/StillImage" />
        <dc:title></dc:title>
      </cc:Work>
    </rdf:RDF>
  </metadata>
  <defs
     id="defs8" />
  <sodipodi:namedview
     pagecolor="#ffffff"
     bordercolor="#666666"
     borderopacity="1"
     objecttolerance="10"
     gridtolerance="10"
     guidetolerance="10"
     inkscape:pageopacity="0"
     inkscape:pageshadow="2"
     inkscape:window-width="1920"
     inkscape:window-height="1004"
     id="namedview6"
     showgrid="false"
     inkscape:zoom="10.429825"
     inkscape:cx="12.622663"
     inkscape:cy="15.285142"
     inkscape:window-x="1360"
     inkscape:window-y="0"
     inkscape:window-maximized="1"
     inkscape:current-layer="svg4" />
  <path
     d="M 20.558857,-0.09305727 H 3.7588571 c -1.995,0 -3.59999992,1.24615387 -3.59999992,2.76923087 V 21.137712 c 0,1.523077 1.60499992,2.769231 3.59999992,2.769231 H 20.558857 c 1.98,0 3.6,-1.246154 3.6,-2.769231 V 2.6761736 c 0,-1.523077 -1.605,-2.76923087 -3.6,-2.76923087 z M 7.9588571,21.137712 h -3.6 v -2.769231 h 3.6 z m 0,-5.076923 h -3.6 v -2.769231 h 3.6 z m 0,-5.076923 h -3.6 V 8.2146354 h 3.6 z m 5.9999999,10.153846 h -3.6 v -2.769231 h 3.6 z m 0,-5.076923 h -3.6 v -2.769231 h 3.6 z m 0,-5.076923 h -3.6 V 8.2146354 h 3.6 z m 6,10.153846 h -3.6 v -7.846154 h 3.6 z m 0,-10.153846 h -3.6 V 8.2146354 h 3.6 z m 0,-5.5384616 H 4.3588571 V 2.6761736 H 19.958857 Z"
     id="path2"
     inkscape:connector-curvature="0"
     style="stroke-width:1" />
</svg>
